<svg xmlns="http://www.w3.org/2000/svg" width="65" height="55" viewBox="0 0 810 810" version="1.0"><defs><clipPath id="a"><path d="M0 150.219h810v509.25H0zm0 0"/></clipPath></defs><g clip-path="url(#a)"><path fill="#00979c" d="M42.496 521.285L.758 657.453h32.844l7.53-25.375h40.723l7.332 25.375h35.711L83.16 521.285zm6.89 83.406l12.407-42.347 12.262 42.347zm153.973-9.355l-1.504-1.496 3.012-1.25a33.862 33.862 0 0010.348-7.25c2.879-2.988 5.226-6.645 6.832-10.774 1.605-4.129 2.394-8.789 2.394-13.949 0-7.129-1.285-13.285-3.824-18.332a32.072 32.072 0 00-4.687-6.957 32.12 32.12 0 00-6.32-5.52c-4.598-3.078-10.192-5.312-16.641-6.62-6.203-1.25-13.16-1.883-20.715-1.883h-42.602v136.172h32.68V604.27h.973c1.601-.055 3.18.125 4.73.535a16.229 16.229 0 014.375 1.867c2.547 1.629 4.477 3.984 5.95 7.25l19.75 43.543h38.015l-23.871-48.59c-2.902-5.898-5.781-10.328-8.774-13.55zm-14.21-26.125c-.942 1.793-2.262 3.273-4.012 4.504a20.268 20.268 0 01-6.82 2.957 39.852 39.852 0 01-9.618 1.062h-6.37V548.95h7.179c7.476 0 13.039 1.176 16.617 3.489 3.035 2.015 4.508 5.535 4.508 10.406 0 2.414-.446 4.449-1.395 6.242zm142.718-31.742c-5.504-5.535-12.437-9.664-20.625-12.176-7.976-2.57-17.36-3.875-27.914-3.875h-43.203v136.168h37.621c12.14 0 22.75-1.66 31.567-4.914 8.94-3.3 16.394-8.082 22.18-14.238 5.78-6.157 9.968-13.618 12.769-22.274 2.66-8.457 3.988-17.98 3.988-28.285 0-11.238-1.328-21.09-3.988-29.293-2.711-8.414-6.867-15.465-12.371-20.992zm-26.719 82.754c-5.671 6.308-13.902 9.355-25.144 9.355h-7.2v-80.394h8.919c6.312 0 11.586.882 15.707 2.656a21.999 21.999 0 019.457 7.34c2.418 3.32 4.168 7.484 5.207 12.367 1.086 5.168 1.664 11.156 1.664 17.8 0 14.169-2.883 24.575-8.598 30.997zm121.817-12.309c0 4.691-.442 8.688-1.293 11.887-.8 2.992-1.996 5.535-3.512 7.242-1.52 1.703-3.27 2.988-5.496 3.762-2.414.863-5.516 1.297-9.195 1.297-3.899 0-7.121-.5-9.57-1.485a14.18 14.18 0 01-5.782-4.16 16.151 16.151 0 01-3.289-6.941 46.862 46.862 0 01-1.074-10.641v-87.602h-32.68v89.075c0 7.363.91 14.113 2.703 20.082 1.883 6.199 4.942 11.547 9.149 15.91 4.21 4.36 9.715 7.726 16.375 9.996 6.469 2.215 14.398 3.355 23.226 3.355 8 0 15.344-1.132 21.825-3.355 6.613-2.27 12.316-5.703 16.949-10.219 4.629-4.515 8.23-10.207 10.687-16.906 2.414-6.574 3.657-14.39 3.657-22.895v-85.043h-32.68v86.63m49.37-59.231h29.325v81.183h-29.324v27.586h91.723v-27.586h-29.325v-81.183h29.325v-27.367h-91.723v27.39m182.777 50.196l-36.523-77.586h-36.996v136.172h30.43V578.41l36.718 79.067h36.801V521.305H659v77.586m136.207-61.489c-9.527-12.12-23.836-18.265-42.504-18.265-7.973 0-15.594 1.418-22.629 4.207a49.702 49.702 0 00-10.133 5.457 49.826 49.826 0 00-8.609 7.629c-5.316 5.867-9.418 13.285-12.406 22.207-2.938 8.812-4.434 19.375-4.434 31.394 0 22.219 4.73 39.5 14.07 51.371 9.528 12.153 23.836 18.32 42.504 18.32a60.666 60.666 0 0022.641-4.206c7.133-2.832 13.438-7.23 18.832-13.086 5.395-5.856 9.414-13.285 12.406-22.207 2.926-8.801 4.43-19.375 4.43-31.395 0-22.277-4.73-39.59-14.066-51.437zm-21.488 70.852c-.93 5.027-2.395 9.27-4.344 12.601-1.848 3.176-4.133 5.5-6.977 7.106-2.847 1.605-6.37 2.414-10.503 2.414-8.165 0-13.844-3.035-17.391-9.3-3.875-6.864-5.871-17.669-5.871-32.15 0-6.796.488-12.898 1.465-18.132.93-5.016 2.402-9.246 4.375-12.578a18.624 18.624 0 017-7.13c2.789-1.593 6.312-2.401 10.433-2.401 8.23 0 13.938 3.035 17.45 9.265 3.874 6.864 5.824 17.692 5.824 32.16 0 6.82-.489 12.922-1.461 18.137zM562.14 464.402c-42.57 0-78.98-14.347-110.993-43.683-19.785-18.121-36.113-40.32-51.109-63.403-15.012 23.082-31.328 45.391-51.113 63.403-34.418 31.527-73.883 45.742-120.742 43.453-89.13-.387-161.508-70.688-161.508-157.04 0-86.593 72.781-157.034 162.262-157.034 48.96 0 90.167 16.195 126.003 49.484 17.215 15.996 31.739 34.563 44.973 53.98 13.25-19.417 27.781-37.972 44.977-53.98 35.824-33.21 77.039-49.484 126.004-49.484 89.468 0 162.257 70.441 162.257 157.035 0 86.351-72.39 156.652-161.507 157.039-3.235.152-6.446.219-9.614.219zM432.617 304.91c17.754 28.781 35.004 55.594 55.985 74.813 23.703 21.699 48.671 30.632 80.863 28.93l1.437-.048c58.891 0 106.785-45.574 106.785-101.605 0-56.027-47.906-101.605-106.785-101.605-34.757 0-62.804 11.015-88.23 34.652-18.996 17.656-34.672 40.297-50.18 64.871zm-203.601-99.637c-58.887 0-106.786 45.59-106.786 101.606 0 56.016 47.91 101.605 106.786 101.605l1.441.047c32.29 1.703 57.27-7.219 80.95-28.93 20.991-19.23 38.218-46.019 55.984-74.816-15.485-24.574-31.168-47.203-50.157-64.87-25.433-23.65-53.468-34.653-88.23-34.653zm0 0"/></g><path fill="#00979c" d="M578.36 286.863v-30.058h-31.305v30.058h-30.176v31.13h30.078v30.39h31.3v-30.278h30.079v-31.132h-29.977m-394.351-.477h98.844v32.106h-98.844zm0 0"/></svg>