<svg xmlns="http://www.w3.org/2000/svg" width="55" height="55" viewBox="0 0 810 810" version="1.0"><path fill="#00549d" d="M385.25 30.832c12.27-6.879 27.371-6.879 39.621 0 60.617 34 243.024 136.348 303.656 170.348 12.27 6.863 19.82 19.574 19.82 33.336V575.19c0 13.762-7.55 26.473-19.82 33.352-60.613 34.004-243.02 136.348-303.656 170.352-12.266 6.878-27.371 6.878-39.621 0-60.613-34.004-243.02-136.348-303.656-170.352-12.25-6.879-19.801-19.57-19.801-33.332V234.53c0-13.758 7.55-26.469 19.82-33.351 60.598-34 243.04-136.348 303.637-170.348zm0 0" fill-rule="evenodd"/><path fill="#0086d4" d="M67.285 592.727c-4.805-6.43-5.492-12.532-5.492-20.747V233.25c0-13.688 7.535-26.328 19.766-33.152a2046993.84 2046993.84 0 00302.59-169.375c12.23-6.84 28.8-6.696 41.03.144 60.4 33.805 241.579 134.688 301.977 168.492 4.88 2.743 8.598 6.047 11.926 10.399zm0 0" fill-rule="evenodd"/><path fill="#fff" d="M405.07 152.066c139.606 0 252.942 113.27 252.942 252.797 0 139.524-113.336 252.797-252.942 252.797-139.605 0-252.941-113.273-252.941-252.797 0-139.527 113.336-252.797 252.941-252.797zm0 126.399c69.793 0 126.473 56.625 126.473 126.398 0 69.754-56.68 126.399-126.473 126.399s-126.468-56.645-126.468-126.399c0-69.773 56.656-126.398 126.468-126.398zm0 0" fill-rule="evenodd"/><path fill="#0075c0" d="M739.043 209.938c9.324 8.722 9.144 21.867 9.144 32.214 0 68.528-.578 263.434.16 331.957.075 7.153-2.292 14.68-5.835 20.352L397.719 404.863zm0 0" fill-rule="evenodd"/><path fill="#fff" d="M531.543 350.691h36.133v108.344h-36.133zm126.469 0h36.136v108.344h-36.136zm0 0" fill-rule="evenodd"/><path fill="#fff" d="M495.406 386.805h108.406v36.113H495.406zm126.473 0H730.28v36.113h-108.4zm0 0" fill-rule="evenodd"/></svg>