<svg xmlns="http://www.w3.org/2000/svg" xmlns:xlink="http://www.w3.org/1999/xlink" width="55" height="55" zoomAndPan="magnify" viewBox="0 0 810 809.999993"  preserveAspectRatio="xMidYMid meet" version="1.0"><path fill="#00549d" d="M 385.25 30.832031 C 397.519531 23.953125 412.621094 23.953125 424.871094 30.832031 C 485.488281 64.832031 667.894531 167.179688 728.527344 201.179688 C 740.796875 208.042969 748.347656 220.753906 748.347656 234.515625 C 748.347656 302.515625 748.347656 507.191406 748.347656 575.191406 C 748.347656 588.953125 740.796875 601.664062 728.527344 608.542969 C 667.914062 642.546875 485.507812 744.890625 424.871094 778.894531 C 412.605469 785.773438 397.5 785.773438 385.25 778.894531 C 324.636719 744.890625 142.230469 642.546875 81.59375 608.542969 C 69.34375 601.664062 61.792969 588.972656 61.792969 575.210938 C 61.792969 507.210938 61.792969 302.535156 61.792969 234.53125 C 61.792969 220.773438 69.34375 208.0625 81.613281 201.179688 C 142.210938 167.179688 324.652344 64.832031 385.25 30.832031 Z M 385.25 30.832031 " fill-opacity="1" fill-rule="evenodd"/><path fill="#0086d4" d="M 67.285156 592.726562 C 62.480469 586.296875 61.792969 580.195312 61.792969 571.980469 C 61.792969 504.375 61.792969 300.875 61.792969 233.25 C 61.792969 219.5625 69.328125 206.921875 81.558594 200.097656 C 141.957031 166.296875 323.75 64.546875 384.148438 30.722656 C 396.378906 23.882812 412.949219 24.027344 425.179688 30.867188 C 485.578125 64.671875 666.757812 165.554688 727.15625 199.359375 C 732.035156 202.101562 735.753906 205.40625 739.082031 209.757812 Z M 67.285156 592.726562 " fill-opacity="1" fill-rule="evenodd"/><path fill="#ffffff" d="M 405.070312 152.066406 C 544.675781 152.066406 658.011719 265.335938 658.011719 404.863281 C 658.011719 544.386719 544.675781 657.660156 405.070312 657.660156 C 265.464844 657.660156 152.128906 544.386719 152.128906 404.863281 C 152.128906 265.335938 265.464844 152.066406 405.070312 152.066406 Z M 405.070312 278.464844 C 474.863281 278.464844 531.542969 335.089844 531.542969 404.863281 C 531.542969 474.617188 474.863281 531.261719 405.070312 531.261719 C 335.277344 531.261719 278.601562 474.617188 278.601562 404.863281 C 278.601562 335.089844 335.257812 278.464844 405.070312 278.464844 Z M 405.070312 278.464844 " fill-opacity="1" fill-rule="evenodd"/><path fill="#0075c0" d="M 739.042969 209.9375 C 748.367188 218.660156 748.1875 231.804688 748.1875 242.152344 C 748.1875 310.679688 747.609375 505.585938 748.347656 574.109375 C 748.421875 581.261719 746.054688 588.789062 742.511719 594.460938 L 397.71875 404.863281 Z M 739.042969 209.9375 " fill-opacity="1" fill-rule="evenodd"/><path fill="#ffffff" d="M 531.542969 350.691406 L 567.675781 350.691406 L 567.675781 459.035156 L 531.542969 459.035156 Z M 658.011719 350.691406 L 694.148438 350.691406 L 694.148438 459.035156 L 658.011719 459.035156 Z M 658.011719 350.691406 " fill-opacity="1" fill-rule="evenodd"/><path fill="#ffffff" d="M 495.40625 386.804688 L 603.8125 386.804688 L 603.8125 422.917969 L 495.40625 422.917969 Z M 621.878906 386.804688 L 730.28125 386.804688 L 730.28125 422.917969 L 621.878906 422.917969 Z M 621.878906 386.804688 " fill-opacity="1" fill-rule="evenodd"/></svg>