<svg width="55" height="50" viewBox="0 0 62.629517 70.552544" xmlns="http://www.w3.org/2000/svg">
    <path d="m -1323.3001,-171.97647 26.2936,-17.96413 30.6351,19.63865 -0.4734,31.27197 -27.1859,17.71079 -29.9875,-16.44756 z" fill="#659bd3" paint-order="markers stroke fill" transform="translate(-101.28189,-177.04362) translate(1427.9297,367.39948)"/>
    <path d="m -1324.0182,-137.76677 c 21.0985,-9.6226 31.794,-20.82235 57.6468,-32.53517 l -0.4734,31.27195 -27.1859,17.71081 z" fill="#004283" paint-order="markers stroke fill" transform="translate(-101.28189,-177.04362) translate(1427.9297,367.39948)"/>
    <path d="m -1266.8448,-139.02999 c -10.3821,-5.28407 -19.1108,-9.98592 -28.5983,-14.95497 12.2752,-9.20942 19.8572,-11.7393 29.0717,-16.31698 z" fill="#00589d" paint-order="markers stroke fill" transform="translate(-101.28189,-177.04362) translate(1427.9297,367.39948)"/>
    <path d="m -1297.8521,-190.35444 c -2.3318,0.0238 -4.3722,1.13239 -7.6481,3.14452 -3.0453,1.87034 -8.5872,5.56326 -12.3156,8.20621 -5.2899,3.74984 -6.9294,5.28341 -7.4641,6.98408 -0.6992,2.22451 -1.4118,16.11878 -1.3658,26.67846 0.039,9.32389 -0.1275,9.13233 14.8838,17.14056 7.0776,3.7756 13.5827,7.1847 14.455,7.57526 h 0.01 c 3.3886,1.51698 4.8127,1.15533 11.6851,-2.96572 9.6984,-5.81559 18.8783,-12.42475 20.4303,-14.70917 1.2409,-1.84078 1.3023,-2.4434 1.033,-10.19783 -0.1575,-4.53276 -0.3753,-11.36086 -0.4837,-15.17272 -0.1322,-4.62724 -0.5539,-7.52784 -1.2707,-8.72712 -1.4489,-2.42522 -6.7422,-5.98588 -18.2651,-12.28606 -7.2057,-3.9397 -10.6854,-5.70206 -13.6834,-5.6715 z m 0.8289,3.57291 c 0.5808,0.0209 1.2111,0.34581 2.1998,1.06505 5.4262,3.09793 19.2513,11.60145 21.793,13.38162 4.6735,3.27319 4.9845,2.07312 4.1822,7.83828 -0.2418,2.5309 -0.413,6.99463 -0.384,9.91878 0.036,2.92418 0.041,7.41873 0.018,9.98749 -0.04,4.80367 0.3885,4.76078 -3.8886,7.47398 -2.1171,1.54207 -7.5938,5.23354 -12.1879,8.17573 l -6.2859,4.02558 c -2.01,1.28731 -2.4974,1.157 -3.6809,0.31266 -2.1426,-1.52829 -18.9105,-10.3891 -23.5386,-12.16205 -3.483,-1.33408 -2.4645,-1.48055 -2.4355,-5.42139 0.019,-2.46137 0.1228,-8.20015 0.2299,-12.75321 0.1083,-4.55332 0.061,-10.0534 -0.1039,-12.22253 -0.2376,-3.1251 -0.1028,-4.08914 0.6486,-4.64259 2.2146,-1.63068 16.3596,-10.93179 20.7832,-13.7413 1.239,-0.78679 1.9037,-1.26288 2.6505,-1.2361 z" transform="translate(-101.28189,-177.04362) translate(1427.9297,367.39948)"/>
    <path d="m -1294.8487,-171.67546 c -3.9902,0.0302 -7.1232,1.14358 -10.2919,3.57187 -5.5462,4.25051 -8.5081,17.01477 -5.3459,23.03788 0.661,1.25881 2.4499,3.0897 3.975,4.06847 5.194,3.33343 13.5921,2.82046 18.7254,-1.14411 1.5877,-1.22634 2.9475,-2.80739 3.0195,-3.51348 0.3026,-2.9346 -3.1023,-4.21111 -5.4932,-2.05931 -3.7636,3.3868 -11.5518,4.01503 -14.4151,1.16271 -1.2283,-1.22367 -1.3721,-2.08854 -1.0946,-6.58563 0.2708,-4.38449 0.5989,-5.59988 2.1395,-7.93803 3.1653,-4.80494 7.8157,-6.27325 14.0595,-4.43953 5.6393,1.65614 5.6866,1.65241 5.9025,-0.43923 0.3314,-3.21411 -2.2459,-4.95078 -8.2703,-5.57228 -1.0231,-0.10555 -1.9896,-0.15632 -2.9104,-0.14933 z m 16.5163,10.99312 c -0.073,0.95723 0.1153,1.71574 -1.3317,1.66399 -1.4973,-0.0535 -1.5709,-0.61585 -1.5193,-1.50329 0.024,-0.42066 -0.6421,-0.87011 -1.2712,-0.9281 -0.6297,-0.058 -1.1883,0.36795 -1.2413,0.9462 -0.053,0.57822 0.103,2.40909 -1.9244,2.09031 -1.6125,-0.25354 -2.1722,1.93421 0.1075,2.12442 1.0569,0.0882 1.6174,-0.0628 1.5177,1.25418 -0.079,1.04649 -0.5941,1.09276 -1.6464,1.03405 -1.0844,-0.0605 -1.3511,1.13413 -0.096,1.78128 0.8528,0.43955 2.1274,0.28311 2.2097,0.99324 l 0.074,0.6382 c 0.189,1.62965 2.7711,1.33712 2.6453,-0.26408 -0.05,-0.63456 -0.085,-1.03714 1.1585,-1.03507 1.1637,0.002 1.2336,0.22309 1.2336,0.83613 0,2.276 3.1437,1.37472 2.9569,-0.55036 -0.1364,-1.4065 1.2803,-0.92465 2.0459,-0.9245 2.0443,4.1e-4 2.1278,-2.16869 0.058,-2.21277 -0.8292,-0.0177 -2.1095,0.38591 -1.9683,-0.76843 0.1291,-1.05514 1.1407,-0.67534 2.0619,-0.87696 1.9172,-0.41944 1.8576,-2.62848 -0.232,-2.59829 -1.897,0.0274 -2.1893,0.38775 -2.2759,-1.74873 -0.072,-1.7724 -2.4761,-1.08117 -2.5625,0.0486 z m -0.1675,5.01882 c -0.038,1.58663 -0.9036,1.33496 -1.5352,1.36115 -1.2811,0.0531 -1.1005,-0.5834 -1.0465,-1.16789 0.054,-0.5845 -0.1841,-1.40989 1.2826,-1.39629 1.1166,0.0103 1.33,-0.0928 1.2991,1.20303 z" fill="#fff" transform="translate(-101.28189,-177.04362) translate(1427.9297,367.39948)"/>
</svg>
