<svg width="55" height="50" viewBox="0 0 62.63 70.553" xmlns="http://www.w3.org/2000/svg"><path d="M3.348 18.38L29.64.414l30.635 19.639-.473 31.272-27.186 17.71L2.63 52.59z" fill="#659bd3" paint-order="markers stroke fill"/><path d="M2.63 52.59c21.098-9.624 31.794-20.823 57.646-32.536l-.473 31.272-27.186 17.71z" fill="#004283" paint-order="markers stroke fill"/><path d="M59.803 51.326c-10.382-5.284-19.11-9.986-28.598-14.955 12.275-9.21 19.857-11.74 29.071-16.317z" fill="#00589d" paint-order="markers stroke fill"/><path d="M28.796.001c-2.332.024-4.372 1.133-7.648 3.145-3.046 1.87-8.588 5.563-12.316 8.206-5.29 3.75-6.93 5.284-7.464 6.984-.7 2.225-1.412 16.119-1.366 26.679.04 9.324-.127 9.132 14.884 17.14 7.078 3.776 13.583 7.185 14.455 7.576h.01c3.389 1.516 4.813 1.155 11.685-2.966 9.698-5.816 18.878-12.425 20.43-14.71 1.241-1.84 1.303-2.443 1.033-10.197a2946.77 2946.77 0 01-.483-15.173c-.133-4.627-.554-7.528-1.271-8.727-1.449-2.425-6.742-5.986-18.265-12.286C35.274 1.732 31.794-.03 28.796 0zm.829 3.573c.58.021 1.21.346 2.2 1.065 5.426 3.098 19.25 11.602 21.792 13.382 4.674 3.273 4.985 2.073 4.183 7.838-.242 2.531-.413 6.995-.384 9.92.036 2.923.04 7.418.018 9.987-.04 4.803.388 4.76-3.889 7.474-2.117 1.542-7.594 5.233-12.188 8.175l-6.286 4.026c-2.01 1.287-2.497 1.157-3.68.312-2.143-1.528-18.911-10.389-23.54-12.162-3.482-1.334-2.464-1.48-2.435-5.42.02-2.462.123-8.201.23-12.754.108-4.553.061-10.054-.104-12.223-.237-3.125-.103-4.089.649-4.642C8.405 16.92 22.55 7.62 26.974 4.81c1.239-.786 1.904-1.262 2.65-1.236z"/><path d="M31.8 18.68c-3.991.03-7.124 1.144-10.293 3.572-5.546 4.25-8.508 17.015-5.346 23.038.661 1.259 2.45 3.09 3.975 4.069 5.194 3.333 13.592 2.82 18.726-1.144 1.587-1.227 2.947-2.808 3.02-3.514.302-2.935-3.103-4.211-5.494-2.06-3.764 3.388-11.552 4.016-14.415 1.163-1.228-1.223-1.372-2.088-1.095-6.585.271-4.385.6-5.6 2.14-7.938 3.165-4.805 7.816-6.273 14.06-4.44 5.639 1.656 5.686 1.653 5.902-.439.331-3.214-2.246-4.95-8.27-5.572a26.42 26.42 0 00-2.91-.15zm16.515 10.994c-.073.957.116 1.715-1.331 1.664-1.498-.054-1.571-.616-1.52-1.504.024-.42-.642-.87-1.27-.928-.63-.058-1.19.368-1.242.946-.053.579.103 2.41-1.924 2.09-1.613-.253-2.173 1.935.107 2.125 1.057.088 1.617-.063 1.518 1.254-.08 1.047-.594 1.093-1.647 1.034-1.084-.06-1.35 1.134-.096 1.782.853.44 2.128.283 2.21.993l.074.638c.189 1.63 2.771 1.337 2.645-.264-.05-.635-.085-1.037 1.159-1.035 1.164.002 1.233.223 1.233.836 0 2.276 3.144 1.375 2.957-.55-.136-1.407 1.28-.925 2.046-.925 2.045 0 2.128-2.169.058-2.213-.829-.017-2.11.386-1.968-.768.129-1.055 1.14-.675 2.062-.877 1.917-.42 1.857-2.629-.232-2.598-1.897.027-2.19.387-2.276-1.75-.072-1.771-2.476-1.08-2.563.05zm-.167 5.018c-.038 1.587-.904 1.335-1.535 1.361-1.281.054-1.1-.583-1.047-1.167.054-.585-.184-1.41 1.283-1.397 1.116.01 1.33-.092 1.299 1.203z" fill="#fff"/></svg>