<svg xmlns="http://www.w3.org/2000/svg" width="55" height="55" viewBox="0 0 810 810" version="1.0"><path fill="#283593" d="M386.168 47.168c11.734-6.582 26.184-6.582 37.898 0 57.98 32.527 232.457 130.441 290.454 162.973 11.734 6.562 18.957 18.726 18.957 31.886v325.926c0 13.164-7.223 25.324-18.957 31.906-57.98 32.532-232.454 130.446-290.454 162.973-11.734 6.582-26.18 6.582-37.898 0-57.977-32.527-232.453-130.441-290.45-162.973-11.718-6.582-18.94-18.726-18.94-31.886V242.047c0-13.164 7.222-25.324 18.956-31.906 57.961-32.532 232.473-130.446 290.434-162.973zm0 0" fill-rule="evenodd"/><path fill="#5c6bc0" d="M82.031 584.727c-4.597-6.149-5.254-11.989-5.254-19.848V240.82c0-13.093 7.207-25.187 18.907-31.718 57.773-32.336 231.66-129.68 289.433-162.036 11.7-6.55 27.547-6.41 39.246.137 57.77 32.34 231.07 128.852 288.844 161.192 4.668 2.625 8.227 5.789 11.406 9.949zm0 0" fill-rule="evenodd"/><path fill="#fff" d="M405.129 163.152c133.535 0 241.941 108.364 241.941 241.848S538.664 646.848 405.13 646.848 163.184 538.484 163.184 405s108.41-241.848 241.945-241.848zm0 120.922c66.758 0 120.969 54.176 120.969 120.926 0 66.734-54.211 120.926-120.97 120.926-66.76 0-120.972-54.192-120.972-120.926 0-66.75 54.196-120.926 120.973-120.926zm0 0" fill-rule="evenodd"/><path fill="#3949ab" d="M724.578 218.52c8.918 8.343 8.746 20.917 8.746 30.816 0 65.559-.554 252.023.153 317.582.07 6.84-2.192 14.043-5.582 19.469L398.094 405zm0 0" fill-rule="evenodd"/></svg>