<svg xmlns="http://www.w3.org/2000/svg" class="icon icon-tabler icon-tabler-brand-git" width="50" height="50" viewBox="0 0 24 24" stroke-width="1.5" stroke="#ff4500" fill="none" stroke-linecap="round" stroke-linejoin="round"><path d="M0 0h24v24H0z" stroke="none"/><path d="M15 12a1 1 0 102 0 1 1 0 10-2 0m-4-4a1 1 0 102 0 1 1 0 10-2 0m0 8a1 1 0 102 0 1 1 0 10-2 0m1-1V9m3 2l-2-2m-2-2L9.1 5.1"/><path d="M13.446 2.6l7.955 7.954a2.045 2.045 0 010 2.892l-7.955 7.955a2.045 2.045 0 01-2.892 0l-7.955-7.955a2.045 2.045 0 010-2.892l7.955-7.955a2.045 2.045 0 012.892 0z"/></svg>