<svg xmlns="http://www.w3.org/2000/svg" width="55" height="55" viewBox="0 0 810 810" version="1.0"><defs><clipPath id="a"><path d="M204 27.266h384v755.25H204zm0 0"/></clipPath></defs><path fill="#4e7896" d="M338.45 427.79s-19.907 12.108 13.847 15.573c40.676 5.188 62.312 4.325 107.312-4.328 0 0 12.118 7.79 28.563 13.844-101.258 43.25-229.352-2.598-149.723-25.09zm-12.981-56.228s-21.637 16.434 12.113 19.899c44.14 4.324 78.758 5.187 138.473-6.922 0 0 7.789 8.649 20.77 12.977-122.028 36.332-258.778 3.457-171.36-25.954zm238.867 98.606s14.715 12.11-16.441 21.625c-57.989 17.305-243.192 22.492-295.125 0-18.176-7.781 16.445-19.031 27.69-20.758 11.255-2.598 17.313-2.598 17.313-2.598-19.906-13.84-132.418 28.547-57.12 40.66 206.84 33.735 377.335-14.706 323.683-38.929zM347.976 312.73s-94.335 22.493-33.753 30.278c25.964 3.46 77.023 2.597 124.625-.867 38.945-3.461 77.89-10.383 77.89-10.383s-13.843 6.055-23.367 12.11c-96.066 25.085-280.402 13.843-227.617-12.11 45.004-21.625 82.219-19.031 82.219-19.031zm168.762 94.29c96.93-50.172 51.926-98.614 20.77-92.56-7.79 1.731-11.25 3.462-11.25 3.462s2.594-5.192 8.652-6.922c61.445-21.625 109.914 64.875-19.902 98.613 0 0 .863-.867 1.73-2.593zM357.492 543.695c93.469 6.059 236.254-3.457 239.738-47.578 0 0-6.925 17.305-77.027 30.278-79.621 14.707-178.281 12.976-236.25 3.46 0 0 12.113 10.383 73.563 13.84zm0 0"/><g clip-path="url(#a)"><path fill="#f58219" d="M457.879 27.266s53.656 54.5-51.063 136.68c-83.945 66.609-19.039 104.671 0 147.921-49.332-44.117-84.812-83.047-60.582-119.375 35.489-53.633 133.293-79.566 111.653-165.226zm-27.676 248.273c25.098 28.547-6.926 54.5-6.926 54.5s64.043-32.871 34.618-73.527c-26.829-38.926-47.602-57.957 64.906-122.82 0 0-177.414 44.117-92.602 141.867zm-64.058 464.516V655.28c0-21.629-12.118-36.332-42.407-36.332-17.308 0-32.023 4.324-45.004 9.5l4.329 15.57c9.503-3.46 21.636-6.921 34.617-6.921 16.445 0 24.234 6.922 24.234 20.761v11.246h-8.656c-41.54 0-60.582 15.57-60.582 40.657 0 20.761 12.984 32.87 36.351 32.87 14.711 0 25.965-6.921 36.352-15.57l1.73 12.973h19.04zm-24.235-27.68c-8.652 7.785-18.172 12.11-26.828 12.11-11.25 0-18.172-6.923-18.172-19.032 0-12.11 6.922-20.762 34.617-20.762h10.387v27.664zm105.59 27.68h-30.293l-36.344-118.512h25.965l22.5 72.664 5.192 21.625c11.25-31.14 19.906-63.148 23.367-94.289h25.965c-6.926 38.93-19.04 81.316-36.348 118.512zm140.2 0V655.28c0-21.629-12.114-36.332-42.407-36.332-17.309 0-32.02 4.324-45.004 9.5l3.461 15.57c10.39-3.46 22.504-6.921 35.488-6.921 16.442 0 24.23 6.922 24.23 20.761v11.246h-8.652c-41.543 0-60.582 15.57-60.582 40.657 0 20.761 12.114 32.87 35.48 32.87 15.583 0 26.833-6.921 37.216-15.57l1.73 12.973h19.04zm-24.231-27.68c-8.653 7.785-18.172 12.11-26.828 12.11-11.254 0-18.176-6.923-18.176-19.032 0-12.11 6.926-20.762 34.617-20.762h10.387zm-317.617 47.578c-6.922 10.383-17.309 18.164-30.29 22.492l-11.257-13.832c8.652-5.191 17.308-12.976 20.77-19.898 3.46-6.055 4.327-14.707 4.327-34.602V579.168h25.965v133.219c0 26.812-2.594 37.195-9.504 47.578zm0 0"/></g></svg>