<svg xmlns="http://www.w3.org/2000/svg" xmlns:xlink="http://www.w3.org/1999/xlink" width="65" height="55" zoomAndPan="magnify" viewBox="0 0 810 809.999993"  preserveAspectRatio="xMidYMid meet" version="1.0"><defs><clipPath id="af12d78ecc"><path d="M 0 150.21875 L 810 150.21875 L 810 659.46875 L 0 659.46875 Z M 0 150.21875 " clip-rule="nonzero"/></clipPath></defs><g clip-path="url(#af12d78ecc)"><path fill="#00979c" d="M 42.496094 521.285156 L 0.757812 657.453125 L 33.601562 657.453125 L 41.132812 632.078125 L 81.855469 632.078125 L 89.1875 657.453125 L 124.898438 657.453125 L 83.160156 521.285156 Z M 49.386719 604.691406 L 61.792969 562.34375 L 74.054688 604.691406 Z M 203.359375 595.335938 L 201.855469 593.839844 L 204.867188 592.589844 C 208.769531 590.824219 212.21875 588.40625 215.214844 585.339844 C 218.09375 582.351562 220.441406 578.695312 222.046875 574.566406 C 223.652344 570.4375 224.441406 565.777344 224.441406 560.617188 C 224.441406 553.488281 223.15625 547.332031 220.617188 542.285156 C 219.359375 539.761719 217.796875 537.441406 215.929688 535.328125 C 214.0625 533.210938 211.957031 531.371094 209.609375 529.808594 C 205.011719 526.730469 199.417969 524.496094 192.96875 523.1875 C 186.765625 521.9375 179.808594 521.304688 172.253906 521.304688 L 129.652344 521.304688 L 129.652344 657.476562 L 162.332031 657.476562 L 162.332031 604.269531 L 163.304688 604.269531 C 164.90625 604.214844 166.484375 604.394531 168.035156 604.804688 C 169.585938 605.210938 171.042969 605.835938 172.410156 606.671875 C 174.957031 608.300781 176.886719 610.65625 178.359375 613.921875 L 198.109375 657.464844 L 236.125 657.464844 L 212.253906 608.875 C 209.351562 602.976562 206.472656 598.546875 203.480469 595.324219 Z M 189.148438 569.210938 C 188.207031 571.003906 186.886719 572.484375 185.136719 573.714844 C 183.046875 575.121094 180.773438 576.105469 178.316406 576.671875 C 175.152344 577.417969 171.949219 577.769531 168.699219 577.734375 L 162.328125 577.734375 L 162.328125 548.949219 L 169.507812 548.949219 C 176.984375 548.949219 182.546875 550.125 186.125 552.4375 C 189.160156 554.453125 190.632812 557.972656 190.632812 562.84375 C 190.632812 565.257812 190.1875 567.292969 189.238281 569.085938 Z M 331.867188 537.46875 C 326.363281 531.933594 319.429688 527.804688 311.242188 525.292969 C 303.265625 522.722656 293.882812 521.417969 283.328125 521.417969 L 240.125 521.417969 L 240.125 657.585938 L 277.746094 657.585938 C 289.886719 657.585938 300.496094 655.925781 309.3125 652.671875 C 318.253906 649.371094 325.707031 644.589844 331.492188 638.433594 C 337.273438 632.277344 341.460938 624.816406 344.261719 616.160156 C 346.921875 607.703125 348.25 598.179688 348.25 587.875 C 348.25 576.636719 346.921875 566.785156 344.261719 558.582031 C 341.550781 550.167969 337.394531 543.117188 331.890625 537.589844 Z M 305.148438 620.222656 C 299.476562 626.53125 291.246094 629.578125 280.003906 629.578125 L 272.804688 629.578125 L 272.804688 549.183594 L 281.722656 549.183594 C 288.035156 549.183594 293.308594 550.066406 297.429688 551.839844 C 299.3125 552.601562 301.058594 553.609375 302.667969 554.855469 C 304.273438 556.101562 305.679688 557.542969 306.886719 559.179688 C 309.304688 562.5 311.054688 566.664062 312.09375 571.546875 C 313.179688 576.714844 313.757812 582.703125 313.757812 589.347656 C 313.757812 603.515625 310.875 613.921875 305.160156 620.34375 Z M 426.964844 607.914062 C 426.964844 612.605469 426.523438 616.601562 425.671875 619.800781 C 424.871094 622.792969 423.675781 625.335938 422.160156 627.042969 C 420.640625 628.746094 418.890625 630.03125 416.664062 630.804688 C 414.25 631.667969 411.148438 632.101562 407.46875 632.101562 C 403.570312 632.101562 400.347656 631.601562 397.898438 630.617188 C 395.617188 629.722656 393.691406 628.335938 392.117188 626.457031 C 390.460938 624.40625 389.367188 622.09375 388.828125 619.515625 C 388.0625 616.007812 387.707031 612.460938 387.753906 608.875 L 387.753906 521.273438 L 355.074219 521.273438 L 355.074219 610.347656 C 355.074219 617.710938 355.984375 624.460938 357.777344 630.429688 C 359.660156 636.628906 362.71875 641.976562 366.925781 646.339844 C 371.136719 650.699219 376.640625 654.066406 383.300781 656.335938 C 389.769531 658.550781 397.699219 659.691406 406.527344 659.691406 C 414.527344 659.691406 421.871094 658.558594 428.351562 656.335938 C 434.964844 654.066406 440.667969 650.632812 445.300781 646.117188 C 449.929688 641.601562 453.53125 635.910156 455.988281 629.210938 C 458.402344 622.636719 459.644531 614.820312 459.644531 606.316406 L 459.644531 521.273438 L 426.964844 521.273438 L 426.964844 607.902344 M 476.335938 548.671875 L 505.660156 548.671875 L 505.660156 629.855469 L 476.335938 629.855469 L 476.335938 657.441406 L 568.058594 657.441406 L 568.058594 629.855469 L 538.734375 629.855469 L 538.734375 548.671875 L 568.058594 548.671875 L 568.058594 521.304688 L 476.335938 521.304688 L 476.335938 548.695312 M 659.113281 598.890625 L 622.589844 521.304688 L 585.59375 521.304688 L 585.59375 657.476562 L 616.023438 657.476562 L 616.023438 578.410156 L 652.742188 657.476562 L 689.542969 657.476562 L 689.542969 521.304688 L 659 521.304688 L 659 598.890625 M 795.207031 537.402344 C 785.679688 525.28125 771.371094 519.136719 752.703125 519.136719 C 744.730469 519.136719 737.109375 520.554688 730.074219 523.34375 C 726.484375 524.769531 723.109375 526.589844 719.941406 528.800781 C 716.777344 531.011719 713.90625 533.554688 711.332031 536.429688 C 706.015625 542.296875 701.914062 549.714844 698.925781 558.636719 C 695.988281 567.449219 694.492188 578.011719 694.492188 590.03125 C 694.492188 612.25 699.222656 629.53125 708.5625 641.402344 C 718.089844 653.554688 732.398438 659.722656 751.066406 659.722656 C 758.882812 659.765625 766.429688 658.363281 773.707031 655.515625 C 780.839844 652.683594 787.144531 648.285156 792.539062 642.429688 C 797.933594 636.574219 801.953125 629.144531 804.945312 620.222656 C 807.871094 611.421875 809.375 600.847656 809.375 588.828125 C 809.375 566.550781 804.644531 549.238281 795.308594 537.390625 Z M 773.71875 608.253906 C 772.789062 613.28125 771.324219 617.523438 769.375 620.855469 C 767.527344 624.03125 765.242188 626.355469 762.398438 627.960938 C 759.550781 629.566406 756.027344 630.375 751.894531 630.375 C 743.730469 630.375 738.050781 627.339844 734.503906 621.074219 C 730.628906 614.210938 728.632812 603.40625 728.632812 588.925781 C 728.632812 582.128906 729.121094 576.027344 730.097656 570.792969 C 731.027344 565.777344 732.5 561.546875 734.472656 558.214844 C 736.15625 555.203125 738.488281 552.824219 741.472656 551.085938 C 744.261719 549.492188 747.785156 548.683594 751.90625 548.683594 C 760.136719 548.683594 765.84375 551.71875 769.355469 557.949219 C 773.230469 564.8125 775.179688 575.640625 775.179688 590.109375 C 775.179688 596.929688 774.691406 603.03125 773.71875 608.246094 Z M 562.140625 464.402344 C 519.570312 464.402344 483.160156 450.054688 451.148438 420.71875 C 431.363281 402.597656 415.035156 380.398438 400.039062 357.316406 C 385.027344 380.398438 368.710938 402.707031 348.925781 420.71875 C 314.507812 452.246094 275.042969 466.460938 228.183594 464.171875 C 139.054688 463.785156 66.675781 393.484375 66.675781 307.132812 C 66.675781 220.539062 139.457031 150.097656 228.9375 150.097656 C 277.898438 150.097656 319.105469 166.292969 354.941406 199.582031 C 372.15625 215.578125 386.679688 234.144531 399.914062 253.5625 C 413.164062 234.144531 427.695312 215.589844 444.890625 199.582031 C 480.714844 166.371094 521.929688 150.097656 570.894531 150.097656 C 660.363281 150.097656 733.152344 220.539062 733.152344 307.132812 C 733.152344 393.484375 660.761719 463.785156 571.644531 464.171875 C 568.410156 464.324219 565.199219 464.390625 562.03125 464.390625 Z M 432.617188 304.910156 C 450.371094 333.691406 467.621094 360.503906 488.601562 379.722656 C 512.304688 401.421875 537.273438 410.355469 569.464844 408.652344 L 570.902344 408.605469 C 629.792969 408.605469 677.6875 363.03125 677.6875 307 C 677.6875 250.972656 629.78125 205.394531 570.902344 205.394531 C 536.144531 205.394531 508.097656 216.410156 482.671875 240.046875 C 463.675781 257.703125 448 280.34375 432.492188 304.917969 Z M 229.015625 205.273438 C 170.128906 205.273438 122.230469 250.863281 122.230469 306.878906 C 122.230469 362.894531 170.140625 408.484375 229.015625 408.484375 L 230.457031 408.53125 C 262.746094 410.234375 287.726562 401.3125 311.40625 379.601562 C 332.398438 360.371094 349.625 333.582031 367.390625 304.785156 C 351.90625 280.210938 336.222656 257.582031 317.234375 239.914062 C 291.800781 216.265625 263.765625 205.261719 229.003906 205.261719 Z M 229.015625 205.273438 " fill-opacity="1" fill-rule="nonzero"/></g><path fill="#00979c" d="M 578.359375 286.863281 L 578.359375 256.804688 L 547.054688 256.804688 L 547.054688 286.863281 L 516.878906 286.863281 L 516.878906 317.992188 L 546.957031 317.992188 L 546.957031 348.382812 L 578.257812 348.382812 L 578.257812 318.105469 L 608.335938 318.105469 L 608.335938 286.972656 L 578.359375 286.972656 M 184.007812 286.496094 L 282.851562 286.496094 L 282.851562 318.601562 L 184.007812 318.601562 Z M 184.007812 286.496094 " fill-opacity="1" fill-rule="nonzero"/></svg>