<svg xmlns="http://www.w3.org/2000/svg" xmlns:xlink="http://www.w3.org/1999/xlink" width="55" height="55" zoomAndPan="magnify" viewBox="0 0 810 809.999993"  preserveAspectRatio="xMidYMid meet" version="1.0"><path fill="#283593" d="M 386.167969 47.167969 C 397.902344 40.585938 412.351562 40.585938 424.066406 47.167969 C 482.046875 79.695312 656.523438 177.609375 714.519531 210.140625 C 726.253906 216.703125 733.476562 228.867188 733.476562 242.027344 C 733.476562 307.085938 733.476562 502.898438 733.476562 567.953125 C 733.476562 581.117188 726.253906 593.277344 714.519531 599.859375 C 656.539062 632.390625 482.066406 730.304688 424.066406 762.832031 C 412.332031 769.414062 397.886719 769.414062 386.167969 762.832031 C 328.191406 730.304688 153.714844 632.390625 95.71875 599.859375 C 84 593.277344 76.777344 581.132812 76.777344 567.972656 C 76.777344 502.914062 76.777344 307.101562 76.777344 242.046875 C 76.777344 228.882812 84 216.722656 95.734375 210.140625 C 153.695312 177.609375 328.207031 79.695312 386.167969 47.167969 Z M 386.167969 47.167969 " fill-opacity="1" fill-rule="evenodd"/><path fill="#5c6bc0" d="M 82.03125 584.726562 C 77.433594 578.578125 76.777344 572.738281 76.777344 564.878906 C 76.777344 500.203125 76.777344 305.515625 76.777344 240.820312 C 76.777344 227.726562 83.984375 215.632812 95.683594 209.101562 C 153.457031 176.765625 327.34375 79.421875 385.117188 47.066406 C 396.816406 40.515625 412.664062 40.65625 424.363281 47.203125 C 482.132812 79.542969 655.433594 176.054688 713.207031 208.394531 C 717.875 211.019531 721.433594 214.183594 724.613281 218.34375 Z M 82.03125 584.726562 " fill-opacity="1" fill-rule="evenodd"/><path fill="#ffffff" d="M 405.128906 163.152344 C 538.664062 163.152344 647.070312 271.515625 647.070312 405 C 647.070312 538.484375 538.664062 646.847656 405.128906 646.847656 C 271.59375 646.847656 163.183594 538.484375 163.183594 405 C 163.183594 271.515625 271.59375 163.152344 405.128906 163.152344 Z M 405.128906 284.074219 C 471.886719 284.074219 526.097656 338.25 526.097656 405 C 526.097656 471.734375 471.886719 525.925781 405.128906 525.925781 C 338.367188 525.925781 284.15625 471.734375 284.15625 405 C 284.15625 338.25 338.351562 284.074219 405.128906 284.074219 Z M 405.128906 284.074219 " fill-opacity="1" fill-rule="evenodd"/><path fill="#3949ab" d="M 724.578125 218.519531 C 733.496094 226.863281 733.324219 239.4375 733.324219 249.335938 C 733.324219 314.894531 732.769531 501.359375 733.476562 566.917969 C 733.546875 573.757812 731.285156 580.960938 727.894531 586.386719 L 398.09375 405 Z M 724.578125 218.519531 " fill-opacity="1" fill-rule="evenodd"/></svg>