<svg xmlns="http://www.w3.org/2000/svg" xmlns:xlink="http://www.w3.org/1999/xlink" width="55" height="55" zoomAndPan="magnify" viewBox="0 0 810 809.999993"  preserveAspectRatio="xMidYMid meet" version="1.0"><defs><clipPath id="e3f197e02c"><path d="M 204 27.265625 L 588 27.265625 L 588 782.515625 L 204 782.515625 Z M 204 27.265625 " clip-rule="nonzero"/></clipPath></defs><path fill="#4e7896" d="M 338.449219 427.789062 C 338.449219 427.789062 318.542969 439.898438 352.296875 443.363281 C 392.972656 448.550781 414.609375 447.6875 459.609375 439.035156 C 459.609375 439.035156 471.726562 446.824219 488.171875 452.878906 C 386.914062 496.128906 258.820312 450.28125 338.449219 427.789062 Z M 325.46875 371.5625 C 325.46875 371.5625 303.832031 387.996094 337.582031 391.460938 C 381.722656 395.785156 416.339844 396.648438 476.054688 384.539062 C 476.054688 384.539062 483.84375 393.1875 496.824219 397.515625 C 374.796875 433.847656 238.046875 400.972656 325.464844 371.5625 Z M 564.335938 470.167969 C 564.335938 470.167969 579.050781 482.277344 547.894531 491.792969 C 489.90625 509.097656 304.703125 514.285156 252.769531 491.792969 C 234.59375 484.011719 269.214844 472.761719 280.460938 471.035156 C 291.714844 468.4375 297.773438 468.4375 297.773438 468.4375 C 277.867188 454.597656 165.355469 496.984375 240.652344 509.097656 C 447.492188 542.832031 617.988281 494.390625 564.335938 470.167969 Z M 347.976562 312.730469 C 347.976562 312.730469 253.640625 335.222656 314.222656 343.007812 C 340.1875 346.46875 391.246094 345.605469 438.847656 342.140625 C 477.792969 338.679688 516.738281 331.757812 516.738281 331.757812 C 516.738281 331.757812 502.894531 337.8125 493.371094 343.867188 C 397.304688 368.953125 212.96875 357.710938 265.753906 331.757812 C 310.757812 310.132812 347.972656 312.726562 347.972656 312.726562 Z M 516.738281 407.019531 C 613.667969 356.847656 568.664062 308.40625 537.507812 314.460938 C 529.71875 316.191406 526.257812 317.921875 526.257812 317.921875 C 526.257812 317.921875 528.851562 312.730469 534.910156 311 C 596.355469 289.375 644.824219 375.875 515.007812 409.613281 C 515.007812 409.613281 515.871094 408.746094 516.738281 407.019531 Z M 357.492188 543.695312 C 450.960938 549.753906 593.746094 540.238281 597.230469 496.117188 C 597.230469 496.117188 590.304688 513.421875 520.203125 526.394531 C 440.582031 541.101562 341.921875 539.371094 283.953125 529.855469 C 283.953125 529.855469 296.066406 540.238281 357.515625 543.695312 Z M 357.492188 543.695312 " fill-opacity="1" fill-rule="nonzero"/><g clip-path="url(#e3f197e02c)"><path fill="#f58219" d="M 457.878906 27.265625 C 457.878906 27.265625 511.535156 81.765625 406.816406 163.945312 C 322.871094 230.554688 387.777344 268.617188 406.816406 311.867188 C 357.484375 267.75 322.003906 228.820312 346.234375 192.492188 C 381.722656 138.859375 479.527344 112.925781 457.886719 27.265625 Z M 430.203125 275.539062 C 455.300781 304.085938 423.277344 330.039062 423.277344 330.039062 C 423.277344 330.039062 487.320312 297.167969 457.894531 256.511719 C 431.066406 217.585938 410.292969 198.554688 522.800781 133.691406 C 522.800781 133.691406 345.386719 177.808594 430.199219 275.558594 Z M 366.144531 740.054688 L 366.144531 655.28125 C 366.144531 633.652344 354.027344 618.949219 323.738281 618.949219 C 306.429688 618.949219 291.714844 623.273438 278.734375 628.449219 L 283.0625 644.019531 C 292.566406 640.558594 304.699219 637.097656 317.679688 637.097656 C 334.125 637.097656 341.914062 644.019531 341.914062 657.859375 L 341.914062 669.105469 L 333.257812 669.105469 C 291.71875 669.105469 272.675781 684.675781 272.675781 709.761719 C 272.675781 730.523438 285.660156 742.632812 309.027344 742.632812 C 323.738281 742.632812 334.992188 735.710938 345.378906 727.0625 L 347.109375 740.035156 L 366.148438 740.035156 Z M 341.910156 712.375 C 333.257812 720.160156 323.738281 724.484375 315.082031 724.484375 C 303.832031 724.484375 296.910156 717.5625 296.910156 705.453125 C 296.910156 693.34375 303.832031 684.691406 331.527344 684.691406 L 341.914062 684.691406 L 341.914062 712.355469 Z M 447.5 740.054688 L 417.207031 740.054688 L 380.863281 621.542969 L 406.828125 621.542969 L 429.328125 694.207031 L 434.519531 715.832031 C 445.769531 684.691406 454.425781 652.683594 457.886719 621.542969 L 483.851562 621.542969 C 476.925781 660.472656 464.8125 702.859375 447.503906 740.054688 Z M 587.699219 740.054688 L 587.699219 655.28125 C 587.699219 633.652344 575.585938 618.949219 545.292969 618.949219 C 527.984375 618.949219 513.273438 623.273438 500.289062 628.449219 L 503.75 644.019531 C 514.140625 640.558594 526.253906 637.097656 539.238281 637.097656 C 555.679688 637.097656 563.46875 644.019531 563.46875 657.859375 L 563.46875 669.105469 L 554.816406 669.105469 C 513.273438 669.105469 494.234375 684.675781 494.234375 709.761719 C 494.234375 730.523438 506.347656 742.632812 529.714844 742.632812 C 545.296875 742.632812 556.546875 735.710938 566.929688 727.0625 L 568.660156 740.035156 L 587.699219 740.035156 Z M 563.46875 712.375 C 554.816406 720.160156 545.296875 724.484375 536.640625 724.484375 C 525.386719 724.484375 518.464844 717.5625 518.464844 705.453125 C 518.464844 693.34375 525.390625 684.691406 553.082031 684.691406 L 563.46875 684.691406 Z M 245.851562 759.953125 C 238.929688 770.335938 228.542969 778.117188 215.5625 782.445312 L 204.304688 768.613281 C 212.957031 763.421875 221.613281 755.636719 225.074219 748.714844 C 228.535156 742.660156 229.402344 734.007812 229.402344 714.113281 L 229.402344 579.167969 L 255.367188 579.167969 L 255.367188 712.386719 C 255.367188 739.199219 252.773438 749.582031 245.863281 759.964844 Z M 245.851562 759.953125 " fill-opacity="1" fill-rule="nonzero"/></g></svg>